<svg width="47" height="47" viewBox="0 0 47 47" fill="none" xmlns="http://www.w3.org/2000/svg">
<g clip-path="url(#clip0_213_65)">
<path d="M23.5 35.25C17.7836 35.25 13.2462 31.255 13.0562 31.0846L14.3605 29.6237C14.4016 29.6609 18.5454 33.2917 23.5 33.2917C28.4546 33.2917 32.5984 29.6609 32.6395 29.6237L33.9438 31.0846C33.7538 31.255 29.2164 35.25 23.5 35.25ZM47 23.5C47 10.5417 36.4583 0 23.5 0C10.5417 0 0 10.5417 0 23.5C0 36.4583 10.5417 47 23.5 47C36.4583 47 47 36.4583 47 23.5ZM45.0417 23.5C45.0417 35.3773 35.3773 45.0417 23.5 45.0417C11.6227 45.0417 1.95833 35.3773 1.95833 23.5C1.95833 11.6227 11.6227 1.95833 23.5 1.95833C35.3773 1.95833 45.0417 11.6227 45.0417 23.5ZM14.6875 13.7083C11.8851 13.7083 9.79167 17.8424 9.79167 21.5417H11.75C11.75 18.7413 13.2873 15.6667 14.6875 15.6667C16.0877 15.6667 17.625 18.7413 17.625 21.5417H19.5833C19.5833 17.8424 17.4899 13.7083 14.6875 13.7083ZM32.3125 13.7083C29.5101 13.7083 27.4167 17.8424 27.4167 21.5417H29.375C29.375 18.7413 30.9123 15.6667 32.3125 15.6667C33.7127 15.6667 35.25 18.7413 35.25 21.5417H37.2083C37.2083 17.8424 35.1149 13.7083 32.3125 13.7083Z" fill="#17352C"/>
</g>
<defs>
<clipPath id="clip0_213_65">
<rect width="47" height="47" fill="white"/>
</clipPath>
</defs>
</svg>
