<svg width="50" height="50" viewBox="0 0 50 50" fill="none" xmlns="http://www.w3.org/2000/svg">
<g clip-path="url(#clip0_219_1089)">
<path d="M25 50C38.8071 50 50 38.8071 50 25C50 11.1929 38.8071 0 25 0C11.1929 0 0 11.1929 0 25C0.0149414 38.801 11.199 49.9851 25 50ZM22.9167 12.5C22.9167 11.3494 23.8494 10.4167 25 10.4167C26.1506 10.4167 27.0833 11.3494 27.0833 12.5V29.1667C27.0833 30.3173 26.1506 31.25 25 31.25C23.8494 31.25 22.9167 30.3173 22.9167 29.1667V12.5ZM25 37.5C26.1506 37.5 27.0833 38.4327 27.0833 39.5833C27.0833 40.7339 26.1506 41.6666 25 41.6666C23.8494 41.6666 22.9167 40.7339 22.9167 39.5833C22.9167 38.4327 23.8494 37.5 25 37.5Z" fill="#ED5454"/>
</g>
<defs>
<clipPath id="clip0_219_1089">
<rect width="50" height="50" fill="white"/>
</clipPath>
</defs>
</svg>
